<svg width="23" height="22" viewBox="0 0 23 22" fill="none" xmlns="http://www.w3.org/2000/svg">
<path d="M20.8682 0.900391C21.5493 0.900391 22.0995 1.47163 22.0996 2.16602V15.3789C22.0996 16.0734 21.5494 16.6455 20.8682 16.6455H13.5391C13.394 17.0379 13.3728 17.3592 13.4766 17.623C14.0746 17.7337 14.616 17.8978 15.0137 18.125C15.422 18.3583 15.7012 18.6724 15.7012 19.0801C15.7011 19.3801 15.5474 19.6318 15.3018 19.8359C15.0573 20.039 14.7151 20.2016 14.3193 20.3281C13.527 20.5814 12.4905 20.7002 11.5 20.7002C10.5095 20.7002 9.47303 20.5814 8.68066 20.3281C8.28488 20.2016 7.94275 20.039 7.69824 19.8359C7.45257 19.6318 7.29895 19.3801 7.29883 19.0801C7.29883 18.6724 7.57804 18.3583 7.98633 18.125C8.38384 17.898 8.92482 17.7337 9.52246 17.623C9.62859 17.3572 9.61916 17.0353 9.46289 16.6455H2.13184C1.45058 16.6455 0.900391 16.0734 0.900391 15.3789V2.16602C0.900528 1.47163 1.45067 0.900391 2.13184 0.900391H20.8682ZM10.3682 16.6455C10.4908 17.1132 10.4774 17.5545 10.3301 17.9424C10.1689 18.3665 9.85168 18.7183 9.39844 18.9648L9.39648 18.9658C9.18107 19.0765 8.92394 18.9865 8.81836 18.7686C8.81162 18.7547 8.80603 18.7377 8.7998 18.7197C8.58715 18.7926 8.42579 18.8689 8.31543 18.9385C8.25124 18.9789 8.20704 19.0148 8.18066 19.0439C8.1525 19.0752 8.15422 19.0869 8.1543 19.0801C8.1543 19.0737 8.15309 19.0862 8.18457 19.1201C8.2137 19.1514 8.26127 19.1906 8.33105 19.2334C8.47027 19.3187 8.68376 19.4128 8.96973 19.501C9.54115 19.6771 10.3927 19.8242 11.5 19.8242C12.6073 19.8242 13.4588 19.6771 14.0303 19.501C14.3162 19.4128 14.5297 19.3187 14.6689 19.2334C14.7387 19.1906 14.7863 19.1514 14.8154 19.1201C14.8469 19.0862 14.8457 19.0737 14.8457 19.0801C14.8458 19.0868 14.8474 19.0751 14.8193 19.0439C14.793 19.0148 14.7487 18.9789 14.6846 18.9385C14.5738 18.8687 14.4113 18.7929 14.1973 18.7197C14.1934 18.732 14.1912 18.7445 14.1875 18.7559L14.1846 18.7646L14.1797 18.7734C14.0981 18.9207 13.9512 19.0107 13.7969 19.0107C13.7517 19.0107 13.6772 19.0113 13.6025 18.9639V18.9648C13.601 18.964 13.5992 18.9627 13.5977 18.9619C13.5959 18.9608 13.5935 18.9602 13.5918 18.959V18.958C13.1361 18.7118 12.8211 18.3637 12.6631 17.9424C12.5175 17.5543 12.5087 17.1127 12.6318 16.6455H10.3682ZM2.13184 1.77637C1.92749 1.77637 1.75599 1.94789 1.75586 2.16602V15.3789C1.75586 15.5972 1.92741 15.7695 2.13184 15.7695H20.8682C21.0726 15.7695 21.2441 15.5972 21.2441 15.3789V2.16602C21.244 1.94789 21.0725 1.77637 20.8682 1.77637H2.13184Z" fill="#2A396D" stroke="#2A396D" stroke-width="0.2"/>
<path d="M3.95754 4.19313H18.1336C18.2632 4.19313 18.3915 4.21983 18.5104 4.27158C18.9488 4.46233 19.1383 4.9885 18.7029 5.18585C18.5611 5.25014 18.4034 5.28468 18.2415 5.26662H3.58395C3.1281 5.18425 2.87859 4.90849 2.96086 4.60587C3.08629 4.30325 3.50168 4.13762 3.95754 4.19313Z" fill="#35C6F4"/>
<path d="M3.95754 7.45979H18.1336C18.2632 7.45979 18.3915 7.48649 18.5104 7.53824C18.9488 7.72899 19.1383 8.25516 18.7029 8.45252C18.5611 8.5168 18.4034 8.55134 18.2415 8.53328H3.58395C3.1281 8.45091 2.87859 8.17515 2.96086 7.87253C3.08629 7.56991 3.50168 7.40428 3.95754 7.45979Z" fill="#35C6F4"/>
<path d="M3.95754 10.7265H18.1336C18.2632 10.7265 18.3915 10.7532 18.5104 10.8049C18.9488 10.9957 19.1383 11.5218 18.7029 11.7192C18.5611 11.7835 18.4034 11.818 18.2415 11.8H3.58395C3.1281 11.7176 2.87859 11.4418 2.96086 11.1392C3.08629 10.8366 3.50168 10.671 3.95754 10.7265Z" fill="#35C6F4"/>
</svg>
