<svg width="38" height="36" viewBox="0 0 38 36" fill="none" xmlns="http://www.w3.org/2000/svg">
<path fill-rule="evenodd" clip-rule="evenodd" d="M11.417 20.6338C8.58166 20.6338 6.2793 23.0457 6.2793 26.0159C6.2793 28.9865 8.58166 31.3984 11.417 31.3984C12.1568 31.3984 13.2024 30.9503 14.2899 30.2829C16.6225 28.8505 19.2147 26.4646 19.2147 26.4646C19.2147 26.4646 21.7127 24.1615 23.9624 22.7807C24.8387 22.2423 25.663 21.8297 26.259 21.8297C28.4641 21.8297 30.255 23.7051 30.255 26.0159C30.255 28.3267 28.4641 30.2021 26.259 30.2021C25.4495 30.2021 24.4632 29.747 23.5641 29.2245C22.1266 28.3907 20.9129 27.3478 20.9129 27.3478C20.6692 27.1384 20.3091 27.1757 20.1092 27.4315C19.9094 27.6869 19.9442 28.0637 20.188 28.2725C20.188 28.2725 21.481 29.3829 23.0115 30.2709C24.0904 30.897 25.2875 31.3984 26.259 31.3984C29.0943 31.3984 31.3967 28.9865 31.3967 26.0159C31.3967 23.0457 29.0943 20.6338 26.259 20.6338C25.5192 20.6338 24.4735 21.0816 23.3861 21.7489C21.0534 23.1813 18.4613 25.5662 18.4613 25.5662C18.4613 25.5662 15.9633 27.8694 13.7136 29.2501C12.8372 29.7885 12.013 30.2021 11.417 30.2021C9.21184 30.2021 7.42094 28.3267 7.42094 26.0159C7.42094 23.7051 9.21184 21.8297 11.417 21.8297C12.2264 21.8297 13.2127 22.2848 14.1118 22.8077C15.5493 23.6411 16.763 24.6843 16.763 24.6843C17.0068 24.8935 17.3669 24.8564 17.5667 24.6004C17.7666 24.3453 17.7318 23.9685 17.488 23.7596C17.488 23.7596 16.1949 22.6492 14.6645 21.761C13.5855 21.1348 12.3885 20.6338 11.417 20.6338ZM11.417 23.0257C9.84201 23.0257 8.56258 24.3662 8.56258 26.0159C8.56258 27.666 9.84201 29.0061 11.417 29.0061C11.7319 29.0061 11.9878 28.7384 11.9878 28.4081C11.9878 28.0779 11.7319 27.8102 11.417 27.8102C10.4722 27.8102 9.70453 27.0062 9.70453 26.0159C9.70453 25.0256 10.4722 24.222 11.417 24.222C11.8852 24.222 12.5129 24.5801 13.1128 24.973C14.1267 25.6375 15.0385 26.4669 15.0385 26.4669C15.2759 26.6833 15.6365 26.6576 15.8434 26.4082C16.0499 26.1595 16.0254 25.7817 15.7873 25.565C15.7873 25.565 14.4483 24.3462 13.1564 23.6142C12.5277 23.2589 11.9021 23.0257 11.417 23.0257ZM26.259 23.0257C25.944 23.0257 25.6881 23.2938 25.6881 23.624C25.6881 23.9539 25.944 24.222 26.259 24.222C27.2044 24.222 27.9714 25.0256 27.9714 26.0159C27.9714 27.0062 27.2044 27.8102 26.259 27.8102C25.7908 27.8102 25.163 27.4518 24.5632 27.0588C23.5493 26.3946 22.6375 25.565 22.6375 25.565C22.4001 25.3485 22.0394 25.3742 21.8326 25.6236C21.6261 25.8724 21.6506 26.2504 21.8886 26.4669C21.8886 26.4669 23.2277 27.6856 24.5195 28.4177C25.1482 28.7729 25.7738 29.0061 26.259 29.0061C27.8346 29.0061 29.1134 27.666 29.1134 26.0159C29.1134 24.3662 27.8346 23.0257 26.259 23.0257Z" fill="#F8993A"/>
<path d="M17.1014 6.41242C17.677 6.324 18.2576 6.28027 18.8375 6.28027C19.4174 6.28027 19.9979 6.324 20.5736 6.41242C20.7943 6.44664 20.9754 6.61206 21.0381 6.83642L21.4844 8.43737C22.3608 8.68201 23.2021 9.04802 23.9867 9.524L25.3824 8.72131C25.578 8.60913 25.8184 8.62624 25.9977 8.76567C26.9304 9.49358 27.758 10.3606 28.4527 11.3379C28.5859 11.5255 28.6023 11.7774 28.4951 11.9825L27.729 13.4446C28.1835 14.2663 28.5326 15.1479 28.7661 16.0647L30.2945 16.5334C30.5086 16.5993 30.6666 16.7888 30.699 17.0201C30.8674 18.2265 30.8674 19.4513 30.699 20.6574C30.6533 20.9841 30.3641 21.2101 30.0519 21.1622C29.74 21.1144 29.5244 20.8111 29.5701 20.4847C29.7046 19.5195 29.7194 18.5399 29.6155 17.5715L28.1314 17.1171C27.9334 17.0569 27.782 16.8886 27.7359 16.6782C27.5088 15.6508 27.12 14.67 26.5873 13.7754C26.4783 13.5916 26.4725 13.3609 26.5719 13.1714L27.3147 11.7499C26.8105 11.0879 26.2363 10.4867 25.6043 9.95814L24.2474 10.7361C24.0663 10.8404 23.8462 10.8344 23.6708 10.72C22.8169 10.1622 21.8805 9.7547 20.9 9.51671C20.6989 9.46823 20.5387 9.30978 20.4809 9.10221L20.0469 7.54753C19.2432 7.45246 18.4317 7.45246 17.6277 7.54753L17.194 9.10221C17.1362 9.30978 16.976 9.46823 16.7749 9.51671C15.7944 9.7547 14.8581 10.1622 14.0041 10.72C13.8288 10.8344 13.6086 10.8404 13.4275 10.7361L12.0706 9.95814C11.4386 10.4861 10.865 11.0879 10.3602 11.7499L11.1031 13.1714C11.2024 13.3609 11.1966 13.5916 11.0876 13.7754C10.555 14.67 10.1661 15.6508 9.93901 16.6782C9.89298 16.8886 9.74157 17.0569 9.54352 17.1171L8.05939 17.5715C7.95552 18.5399 7.97036 19.5195 8.10481 20.4847C8.15054 20.8111 7.93493 21.1144 7.62302 21.1622C7.31081 21.2101 7.02131 20.9841 6.97589 20.6574C6.80752 19.4513 6.80752 18.2265 6.97589 17.0201C7.00829 16.7888 7.16636 16.5993 7.38046 16.5334L8.90881 16.066C9.14228 15.1479 9.49144 14.2663 9.94598 13.4446L9.17983 11.9825C9.07263 11.7774 9.08899 11.5255 9.22223 11.3379C9.9169 10.3606 10.7445 9.49358 11.6772 8.76567C11.8565 8.62624 12.0969 8.60913 12.2926 8.72131L13.6883 9.524C14.4729 9.04802 15.3141 8.68201 16.1893 8.43737L16.6368 6.83642C16.6995 6.61206 16.8806 6.44664 17.1014 6.41242Z" fill="#2A396D"/>
<path d="M10.9392 18.1498C11.5313 14.1396 14.8444 11.0644 18.8375 11.0644C22.8305 11.0644 26.1437 14.1396 26.7357 18.1498C26.7835 18.4766 26.5697 18.7814 26.2584 18.8318C25.9468 18.8825 25.6552 18.6578 25.6071 18.3317C25.0995 14.8944 22.2597 12.2607 18.8375 12.2607C15.4153 12.2607 12.5754 14.8944 12.0679 18.3317C12.0197 18.6578 11.7281 18.8825 11.4165 18.8318C11.1052 18.7814 10.8914 18.4766 10.9392 18.1498Z" fill="#2A396D"/>
</svg>
