<svg width="20" height="20" viewBox="0 0 20 20" fill="none" xmlns="http://www.w3.org/2000/svg">
<path d="M17.2023 13.3099L14.4276 10.5352L13.5676 11.5392L15.8127 13.7844L14.2165 15.3804L12.0949 13.2588L11.2347 14.2629L13.7422 16.7703C14.447 17.475 17.313 18.4654 18.1745 18.7522C18.2427 18.775 18.3129 18.7859 18.3825 18.7859C18.5546 18.7859 18.7229 18.7185 18.8485 18.593L19.025 18.4166C19.2015 18.2402 19.2632 17.9792 19.1842 17.7425C18.8975 16.8807 17.9072 14.0147 17.2023 13.3099ZM14.8623 15.9773L16.4095 14.4302C16.7026 14.9018 17.1662 16.0112 17.5812 17.1491C16.4435 16.7343 15.3341 16.2707 14.8623 15.9773ZM19.486 2.70653C19.4905 2.2728 19.3259 1.86684 19.0223 1.56316L18.9226 1.46352C18.6237 1.16467 18.2236 1.00009 17.7963 1.00009C17.3675 1.00009 16.9648 1.16449 16.6606 1.46334L10.781 6.88846L5.57276 1.68021C5.1342 1.24156 4.55109 1 3.93082 1C3.31054 1 2.72743 1.24156 2.28878 1.68021L2.11242 1.85665C1.20709 2.76207 1.20709 4.23513 2.11251 5.14046L7.18167 10.2096L5.50677 11.755C5.50036 11.7609 5.49394 11.7671 5.4877 11.7733C5.27005 11.9909 5.13868 12.2576 5.09861 12.5522C5.00406 12.5395 4.90767 12.5307 4.80838 12.5307C4.37772 12.5307 3.73768 12.6681 3.13638 13.3225C2.54053 13.9706 2.29801 14.6762 2.08404 15.2987C1.77395 16.201 1.54997 16.8528 0.400357 17.3436C0.199133 17.4294 0.0537064 17.6096 0.0119679 17.8246C-0.029507 18.0394 0.0382416 18.2609 0.193069 18.4157C0.623722 18.8465 1.69539 19 2.55459 19C3.6129 19 5.61705 18.7712 7.14881 17.2393C7.59774 16.7904 7.83437 16.2419 7.83305 15.6534C7.83288 15.5653 7.82585 15.4792 7.81601 15.3941C8.15976 15.3773 8.47047 15.2406 8.71782 14.9935C8.72397 14.9872 8.73012 14.9808 8.7361 14.9743L19.0229 3.82547C19.3174 3.52575 19.4818 3.12901 19.486 2.70653ZM3.04447 4.20841C2.65309 3.81704 2.65309 3.18007 3.04455 2.7886L3.22082 2.61216C3.41053 2.42253 3.66263 2.31806 3.93082 2.31806C4.199 2.31806 4.45101 2.42245 4.64072 2.61225L5.65299 3.62452L4.05682 5.22077L3.04447 4.20841ZM4.67807 5.84201L6.27432 4.24576L9.81163 7.78316L8.15132 9.31518L4.67807 5.84201ZM6.21703 16.3073C5.02102 17.5034 3.40922 17.682 2.55476 17.682C2.45389 17.682 2.3575 17.6796 2.26567 17.6752C2.87013 17.0674 3.11002 16.3695 3.33066 15.7272C3.51932 15.1783 3.69761 14.6597 4.10691 14.2145C4.333 13.9684 4.56269 13.8489 4.80855 13.8489C5.23771 13.8489 5.68119 14.1954 5.85597 14.366C5.87302 14.384 5.88857 14.3998 5.89929 14.4105L5.91326 14.4245C6.03909 14.5524 6.9728 15.5515 6.21703 16.3073ZM18.0805 2.90398C18.0743 2.91022 18.0679 2.91663 18.062 2.92313L7.7791 14.0681C7.76662 14.0795 7.76214 14.0795 7.74457 14.0795C7.54897 14.0795 7.18308 13.8269 7.00769 13.6548L6.85093 13.4981C6.85057 13.4977 6.85005 13.4972 6.84978 13.4968C6.83845 13.4849 6.82052 13.4665 6.7997 13.4457C6.62466 13.2593 6.40252 12.9243 6.40244 12.7443C6.40244 12.7276 6.40244 12.7239 6.4128 12.7126L17.563 2.42412C17.5695 2.41814 17.576 2.4119 17.5823 2.40566C17.6585 2.32948 17.7491 2.31814 17.7964 2.31814C17.8401 2.31814 17.9232 2.32816 17.9911 2.39591L18.0906 2.49538C18.1592 2.56401 18.1686 2.64863 18.1683 2.693C18.1677 2.73957 18.1556 2.82894 18.0805 2.90398Z" fill="#2A396D"/>
</svg>
