<svg width="108" height="54" viewBox="0 0 108 54" fill="none" xmlns="http://www.w3.org/2000/svg">
<path d="M39.8034 37.2798L41.1744 37.7143C40.9642 38.4783 40.6139 39.0465 40.1235 39.419C39.6362 39.7882 39.0168 39.9729 38.2652 39.9729C37.3353 39.9729 36.571 39.6561 35.9723 39.0227C35.3736 38.386 35.0742 37.517 35.0742 36.4156C35.0742 35.2505 35.3752 34.3464 35.9771 33.7034C36.579 33.0572 37.3703 32.7341 38.3512 32.7341C39.2079 32.7341 39.9037 32.9872 40.4387 33.4933C40.7572 33.7926 40.996 34.2223 41.1553 34.7826L39.7556 35.1168C39.6728 34.7539 39.4993 34.4674 39.2349 34.2573C38.9738 34.0472 38.6553 33.9422 38.2796 33.9422C37.7605 33.9422 37.3385 34.1284 37.0137 34.5008C36.692 34.8733 36.5312 35.4765 36.5312 36.3105C36.5312 37.1955 36.6904 37.8257 37.0089 38.2014C37.3273 38.577 37.7413 38.7648 38.2509 38.7648C38.6267 38.7648 38.9499 38.6454 39.2206 38.4067C39.4913 38.1679 39.6856 37.7923 39.8034 37.2798Z" fill="white"/>
<path d="M47.4702 32.8535H48.8842V36.6448C48.8842 37.2464 48.9017 37.6363 48.9367 37.8146C48.9972 38.1011 49.1406 38.3319 49.3667 38.507C49.596 38.6789 49.9081 38.7648 50.3029 38.7648C50.7042 38.7648 51.0068 38.6836 51.2106 38.5213C51.4144 38.3558 51.537 38.1536 51.5784 37.9149C51.6198 37.6761 51.6405 37.2798 51.6405 36.7259V32.8535H53.0545V36.5302C53.0545 37.3705 53.0163 37.9642 52.9398 38.3112C52.8634 38.6582 52.7217 38.951 52.5147 39.1898C52.3109 39.4285 52.037 39.6195 51.693 39.7628C51.3491 39.9028 50.9001 39.9729 50.3459 39.9729C49.6772 39.9729 49.1692 39.8965 48.8221 39.7437C48.4782 39.5877 48.2059 39.3871 48.0052 39.142C47.8046 38.8937 47.6724 38.6343 47.6087 38.3637C47.5164 37.9626 47.4702 37.3705 47.4702 36.5875V32.8535Z" fill="white"/>
<path d="M59.6417 39.8535V32.8535H62.6177C63.3661 32.8535 63.9091 32.9172 64.2467 33.0445C64.5874 33.1686 64.8597 33.3915 65.0635 33.713C65.2674 34.0345 65.3693 34.4022 65.3693 34.816C65.3693 35.3412 65.2148 35.7757 64.9059 36.1195C64.597 36.4601 64.1352 36.675 63.5206 36.7641C63.8263 36.9424 64.0779 37.1382 64.2753 37.3514C64.476 37.5647 64.7451 37.9435 65.0826 38.4879L65.9377 39.8535H64.2467L63.2244 38.3303C62.8614 37.786 62.613 37.4438 62.4792 37.3037C62.3454 37.1604 62.2037 37.0634 62.0541 37.0124C61.9044 36.9583 61.6671 36.9313 61.3423 36.9313H61.0557V39.8535H59.6417ZM61.0557 35.8139H62.1018C62.7802 35.8139 63.2037 35.7853 63.3725 35.728C63.5413 35.6707 63.6734 35.572 63.769 35.4319C63.8645 35.2919 63.9123 35.1168 63.9123 34.9067C63.9123 34.6711 63.8486 34.4817 63.7212 34.3385C63.597 34.1921 63.4203 34.0997 63.191 34.0615C63.0763 34.0456 62.7324 34.0377 62.1591 34.0377H61.0557V35.8139Z" fill="white"/>
<path d="M73.3705 39.8535V34.0377H71.2925V32.8535H76.8576V34.0377H74.7844V39.8535H73.3705Z" fill="white"/>
<path d="M88.4511 39.8535H86.9129L86.3015 38.2634H83.5022L82.9242 39.8535H81.4242L84.1518 32.8535H85.647L88.4511 39.8535ZM85.8477 37.084L84.8827 34.4865L83.9369 37.084H85.8477Z" fill="white"/>
<path d="M94.2501 39.8535V32.8535H95.6641V39.8535H94.2501Z" fill="white"/>
<path d="M102.118 39.8535V32.8535H103.493L106.36 37.5281V32.8535H107.673V39.8535H106.254L103.431 35.2887V39.8535H102.118Z" fill="white"/>
<path d="M14.8438 51.5983L16.2195 51.4646C16.3023 51.9262 16.4695 52.2652 16.7211 52.4817C16.9759 52.6981 17.3182 52.8064 17.7481 52.8064C18.2035 52.8064 18.5459 52.7109 18.7752 52.5199C19.0077 52.3257 19.1239 52.0997 19.1239 51.8418C19.1239 51.6763 19.0745 51.5362 18.9758 51.4217C18.8803 51.3039 18.7115 51.202 18.4695 51.1161C18.3039 51.0588 17.9265 50.9569 17.3373 50.8105C16.5794 50.6227 16.0475 50.3919 15.7418 50.1181C15.3119 49.7329 15.0969 49.2634 15.0969 48.7095C15.0969 48.353 15.1972 48.0203 15.3979 47.7116C15.6017 47.3996 15.8931 47.1625 16.2721 47.0001C16.6542 46.8378 17.1144 46.7566 17.6526 46.7566C18.5316 46.7566 19.1924 46.9492 19.635 47.3344C20.0809 47.7195 20.315 48.2336 20.3372 48.8766L18.9233 48.9387C18.8628 48.579 18.7322 48.3212 18.5316 48.1652C18.3341 48.006 18.0363 47.9264 17.6383 47.9264C17.2274 47.9264 16.9058 48.0108 16.6733 48.1795C16.5236 48.2877 16.4488 48.4326 16.4488 48.614C16.4488 48.7795 16.5189 48.9212 16.659 49.039C16.8373 49.1886 17.2704 49.3446 17.9583 49.5069C18.6462 49.6693 19.1542 49.838 19.4822 50.0131C19.8134 50.185 20.0713 50.4221 20.256 50.7245C20.4439 51.0237 20.5379 51.3946 20.5379 51.8371C20.5379 52.2382 20.4264 52.6138 20.2035 52.9639C19.9806 53.3141 19.6653 53.5751 19.2577 53.747C18.85 53.9157 18.3421 54.0001 17.7338 54.0001C16.8485 54.0001 16.1686 53.7964 15.694 53.3889C15.2195 52.9783 14.9361 52.3814 14.8438 51.5983Z" fill="white"/>
<path d="M23.2995 50.4189C23.2995 49.7059 23.4062 49.1074 23.6196 48.6236C23.7788 48.267 23.9954 47.9471 24.2692 47.6638C24.5463 47.3805 24.8489 47.1704 25.1769 47.0335C25.6132 46.8489 26.1163 46.7566 26.6864 46.7566C27.7182 46.7566 28.543 47.0765 29.1608 47.7163C29.7819 48.3562 30.0924 49.2459 30.0924 50.3855C30.0924 51.5156 29.785 52.4005 29.1704 53.0403C28.5558 53.677 27.7341 53.9953 26.7055 53.9953C25.6641 53.9953 24.8361 53.6786 24.2215 53.0451C23.6068 52.4085 23.2995 51.5331 23.2995 50.4189ZM24.7565 50.3712C24.7565 51.1638 24.9396 51.7654 25.3058 52.1761C25.6721 52.5835 26.137 52.7873 26.7007 52.7873C27.2644 52.7873 27.7262 52.5851 28.086 52.1809C28.4491 51.7734 28.6306 51.1638 28.6306 50.3521C28.6306 49.5499 28.4539 48.9514 28.1004 48.5567C27.7501 48.162 27.2835 47.9646 26.7007 47.9646C26.1179 47.9646 25.6482 48.1652 25.2915 48.5663C24.9348 48.9642 24.7565 49.5658 24.7565 50.3712Z" fill="white"/>
<path d="M33.069 53.8759V46.876H37.8698V48.0601H34.4829V49.717H37.4064V50.9012H34.4829V53.8759H33.069Z" fill="white"/>
<path d="M46.6695 53.8759H45.1313L44.5199 52.2859H41.7206L41.1426 53.8759H39.6426L42.3703 46.876H43.8654L46.6695 53.8759ZM44.0661 51.1065L43.1011 48.509L42.1553 51.1065H44.0661Z" fill="white"/>
<path d="M55.0827 53.8759V46.876H59.8836V48.0601H56.4967V49.717H59.4202V50.9012H56.4967V53.8759H55.0827Z" fill="white"/>
<path d="M68.6833 53.8759H67.1451L66.5336 52.2859H63.7344L63.1563 53.8759H61.6564L64.384 46.876H65.8792L68.6833 53.8759ZM66.0798 51.1065L65.1149 48.509L64.1691 51.1065H66.0798Z" fill="white"/>
<path d="M71.3016 46.876H74.1009C74.655 46.876 75.0674 46.8998 75.3381 46.9476C75.612 46.9922 75.8556 47.0877 76.069 47.2341C76.2856 47.3805 76.4655 47.5763 76.6088 47.8214C76.7521 48.0633 76.8238 48.3355 76.8238 48.6379C76.8238 48.9658 76.7346 49.2666 76.5563 49.5403C76.3811 49.8141 76.1423 50.0194 75.8397 50.1563C76.2665 50.2805 76.5945 50.4921 76.8238 50.7914C77.0531 51.0906 77.1677 51.4423 77.1677 51.8466C77.1677 52.1649 77.0929 52.4753 76.9432 52.7777C76.7967 53.0769 76.5945 53.3173 76.3365 53.4987C76.0818 53.677 75.7665 53.7868 75.3907 53.8282C75.155 53.8537 74.5866 53.8696 73.6853 53.8759H71.3016V46.876ZM72.7156 48.041V49.6597H73.6423C74.1933 49.6597 74.5356 49.6518 74.6694 49.6358C74.9114 49.6072 75.1009 49.5244 75.2378 49.3876C75.378 49.2475 75.448 49.0645 75.448 48.8384C75.448 48.622 75.3875 48.4469 75.2665 48.3132C75.1487 48.1763 74.9719 48.0936 74.7362 48.0649C74.5961 48.049 74.1933 48.041 73.5277 48.041H72.7156ZM72.7156 50.8248V52.6965H74.0245C74.534 52.6965 74.8573 52.6822 74.9942 52.6536C75.2044 52.6154 75.3748 52.5231 75.5053 52.3766C75.6391 52.227 75.706 52.0281 75.706 51.7798C75.706 51.5697 75.655 51.3914 75.5531 51.245C75.4512 51.0986 75.3031 50.9919 75.1088 50.9251C74.9178 50.8582 74.5006 50.8248 73.8573 50.8248H72.7156Z" fill="white"/>
<path d="M80.2303 53.8759V46.876H83.2064C83.9547 46.876 84.4977 46.9396 84.8353 47.067C85.176 47.1911 85.4483 47.4139 85.6522 47.7354C85.856 48.057 85.9579 48.4246 85.9579 48.8384C85.9579 49.3637 85.8034 49.7982 85.4945 50.142C85.1856 50.4826 84.7238 50.6975 84.1092 50.7866C84.4149 50.9649 84.6665 51.1606 84.864 51.3739C85.0646 51.5872 85.3337 51.966 85.6713 52.5103L86.5263 53.8759H84.8353L83.813 52.3528C83.45 51.8084 83.2016 51.4662 83.0678 51.3262C82.9341 51.1829 82.7924 51.0858 82.6427 51.0349C82.493 50.9808 82.2557 50.9537 81.9309 50.9537H81.6443V53.8759H80.2303ZM81.6443 49.8364H82.6904C83.3688 49.8364 83.7923 49.8077 83.9611 49.7504C84.1299 49.6931 84.2621 49.5945 84.3576 49.4544C84.4531 49.3143 84.5009 49.1393 84.5009 48.9292C84.5009 48.6936 84.4372 48.5042 84.3098 48.361C84.1856 48.2145 84.0089 48.1222 83.7796 48.084C83.6649 48.0681 83.321 48.0601 82.7478 48.0601H81.6443V49.8364Z" fill="white"/>
<path d="M89.1112 53.8759V46.876H90.5252V53.8759H89.1112Z" fill="white"/>
<path d="M98.2167 51.3023L99.5877 51.7368C99.3775 52.5008 99.0272 53.069 98.5367 53.4414C98.0495 53.8107 97.4301 53.9953 96.6785 53.9953C95.7486 53.9953 94.9843 53.6786 94.3856 53.0451C93.7869 52.4085 93.4875 51.5394 93.4875 50.438C93.4875 49.273 93.7885 48.3689 94.3903 47.7259C94.9922 47.0797 95.7836 46.7566 96.7645 46.7566C97.6212 46.7566 98.317 47.0097 98.852 47.5158C99.1705 47.815 99.4093 48.2448 99.5686 48.805L98.1689 49.1393C98.0861 48.7764 97.9126 48.4899 97.6482 48.2798C97.3871 48.0697 97.0686 47.9646 96.6928 47.9646C96.1737 47.9646 95.7518 48.1509 95.4269 48.5233C95.1053 48.8957 94.9445 49.499 94.9445 50.333C94.9445 51.2179 95.1037 51.8482 95.4222 52.2238C95.7406 52.5995 96.1546 52.7873 96.6642 52.7873C97.04 52.7873 97.3632 52.6679 97.6339 52.4292C97.9046 52.1904 98.0989 51.8148 98.2167 51.3023Z" fill="white"/>
<path d="M102.306 51.5983L103.682 51.4646C103.765 51.9262 103.932 52.2652 104.184 52.4817C104.438 52.6981 104.781 52.8064 105.211 52.8064C105.666 52.8064 106.008 52.7109 106.238 52.5199C106.47 52.3257 106.586 52.0997 106.586 51.8418C106.586 51.6763 106.537 51.5362 106.438 51.4217C106.343 51.3039 106.174 51.202 105.932 51.1161C105.766 51.0588 105.389 50.9569 104.8 50.8105C104.042 50.6227 103.51 50.3919 103.204 50.1181C102.774 49.7329 102.56 49.2634 102.56 48.7095C102.56 48.353 102.66 48.0203 102.86 47.7116C103.064 47.3996 103.356 47.1625 103.735 47.0001C104.117 46.8378 104.577 46.7566 105.115 46.7566C105.994 46.7566 106.655 46.9492 107.098 47.3344C107.543 47.7195 107.778 48.2336 107.8 48.8766L106.386 48.9387C106.325 48.579 106.195 48.3212 105.994 48.1652C105.797 48.006 105.499 47.9264 105.101 47.9264C104.69 47.9264 104.368 48.0108 104.136 48.1795C103.986 48.2877 103.911 48.4326 103.911 48.614C103.911 48.7795 103.981 48.9212 104.122 49.039C104.3 49.1886 104.733 49.3446 105.421 49.5069C106.109 49.6693 106.617 49.838 106.945 50.0131C107.276 50.185 107.534 50.4221 107.719 50.7245C107.907 51.0237 108 51.3946 108 51.8371C108 52.2382 107.889 52.6138 107.666 52.9639C107.443 53.3141 107.128 53.5751 106.72 53.747C106.313 53.9157 105.805 54.0001 105.196 54.0001C104.311 54.0001 103.631 53.7964 103.157 53.3889C102.682 52.9783 102.399 52.3814 102.306 51.5983Z" fill="white"/>
<path d="M0 24.0175V11.8531L21.0112 11.7374C23.3925 11.7243 25.0759 11.2521 25.9571 10.2106C26.7447 9.27956 26.944 8.4379 26.8859 7.79393C26.8277 7.1482 26.4859 6.42089 25.663 5.75839C24.9746 5.20414 23.866 4.98179 22.1357 4.98179H2.39965C1.07436 4.98179 0 3.9079 0 2.58318C0 1.25847 1.07436 0.18457 2.39965 0.18457H22.1357C23.9646 0.18457 26.5901 0.344959 28.6736 2.02245C30.3705 3.38872 31.4754 5.25297 31.6658 7.36293C31.8563 9.47466 31.1064 11.5531 29.6218 13.3081C27.2816 16.0744 23.6452 16.5201 21.0377 16.5345L4.7993 16.6239V24.0175C4.7993 25.3422 3.72494 26.4161 2.39965 26.4161C1.07436 26.4161 4.56661e-06 25.3422 0 24.0175Z" fill="white"/>
<path d="M105.807 2.58311V14.7475L84.7954 14.8632C82.4141 14.8763 80.7308 15.3485 79.8496 16.3901C79.062 17.3211 78.8626 18.1627 78.9207 18.8067C78.979 19.4525 79.3208 20.1798 80.1436 20.8423C80.832 21.3965 81.9406 21.6189 83.671 21.6189H103.407C104.732 21.6189 105.807 22.6927 105.807 24.0175C105.807 25.3422 104.732 26.4161 103.407 26.4161H83.671C81.842 26.4161 79.2165 26.2557 77.133 24.5782C75.4361 23.2119 74.3313 21.3477 74.1409 19.2377C73.9503 17.126 74.7002 15.0475 76.1849 13.2925C78.525 10.5263 82.1614 10.0805 84.7689 10.0662L101.007 9.97679V2.58311C101.007 1.2584 102.082 0.184502 103.407 0.184502C104.732 0.184502 105.807 1.2584 105.807 2.58311Z" fill="white"/>
<path d="M65.2506 23.9861V15.4987H39.5005V23.9861C39.5005 25.3108 38.4261 26.3847 37.1008 26.3847C35.7755 26.3847 34.7012 25.3108 34.7012 23.9861V2.39861C34.7012 1.0739 35.7755 5.0873e-07 37.1008 0C38.4261 5.79052e-08 39.5005 1.0739 39.5005 2.39861V10.7015H65.2506V2.39861C65.2506 1.0739 66.325 0 67.6502 0C68.9755 0 70.0499 1.0739 70.0499 2.39861V23.9861C70.0499 25.3108 68.9755 26.3847 67.6502 26.3847C66.325 26.3847 65.2506 25.3108 65.2506 23.9861Z" fill="white"/>
</svg>
