<svg width="40" height="40" viewBox="0 0 40 40" fill="none" xmlns="http://www.w3.org/2000/svg">
<g clip-path="url(#clip0_1482_13764)">
<path d="M22.3154 0C22.4876 -0.0037917 22.6564 0.0473472 22.7979 0.145508C22.9394 0.243742 23.0461 0.384233 23.1025 0.546875L24.4375 4.95996C25.5333 5.287 26.5895 5.73486 27.5869 6.29395L31.6572 4.12012C31.8118 4.03812 31.9891 4.00785 32.1621 4.03418C32.3351 4.06058 32.4951 4.14234 32.6182 4.2666L35.8086 7.4668C35.9331 7.58974 36.0146 7.74997 36.041 7.92285C36.0674 8.09567 36.0371 8.27235 35.9551 8.42676L33.7666 12.5205C34.3002 13.5072 34.7251 14.5489 35.0342 15.627L39.5049 16.96C39.6577 17.0251 39.7877 17.1357 39.876 17.2764C39.9641 17.4169 40.0069 17.5814 39.999 17.7471V22.293C39.9982 22.4661 39.9421 22.6353 39.8389 22.7744C39.7357 22.9133 39.5903 23.0154 39.4248 23.0664L34.9277 24.4004C34.6152 25.4603 34.1895 26.4835 33.6592 27.4531L35.875 31.5869C35.957 31.7413 35.9873 31.918 35.9609 32.0908C35.9345 32.2637 35.853 32.4239 35.7285 32.5469L32.5381 35.7334C32.415 35.8577 32.255 35.9394 32.082 35.9658C31.909 35.9922 31.7317 35.9619 31.5771 35.8799L27.4268 33.667C26.4598 34.1913 25.4397 34.6111 24.3838 34.9199L23.0488 39.4268C22.9977 39.5921 22.895 39.7368 22.7559 39.8398C22.6167 39.9429 22.4486 39.9991 22.2754 40H17.7637C17.5905 39.9991 17.4223 39.9429 17.2832 39.8398C17.144 39.7368 17.0414 39.5921 16.9902 39.4268L15.6553 34.9336C14.5903 34.6263 13.5615 34.2056 12.5859 33.6797L8.46191 35.8799C8.30732 35.9619 8.13006 35.9922 7.95703 35.9658C7.78401 35.9394 7.62404 35.8577 7.50098 35.7334L4.31055 32.5469C4.18603 32.4239 4.10457 32.2637 4.07812 32.0908C4.05174 31.918 4.08203 31.7413 4.16406 31.5869L6.35254 27.4004C5.79556 26.4166 5.34867 25.3741 5.01855 24.293L0.574219 22.96C0.408621 22.9089 0.263375 22.8061 0.160156 22.667C0.0570403 22.5279 0.000806465 22.3596 0 22.1865V17.6797C0.000897497 17.5067 0.0570225 17.3382 0.160156 17.1992C0.263365 17.0602 0.408704 16.9583 0.574219 16.9072L4.99121 15.5732C5.31776 14.4739 5.76572 13.4138 6.32617 12.4131L4.16406 8.41309C4.08206 8.25866 4.0517 8.08199 4.07812 7.90918C4.10457 7.73624 4.18598 7.57609 4.31055 7.45312L7.55371 4.29395C7.67668 4.16962 7.83684 4.08802 8.00977 4.06152C8.18272 4.03513 8.36009 4.0646 8.51465 4.14648L12.5186 6.30664C13.5245 5.74582 14.5903 5.29893 15.6953 4.97363L17.0303 0.573242C17.0814 0.407953 17.1841 0.263201 17.3232 0.160156C17.4623 0.0571867 17.6306 0.000879489 17.8037 0H22.3154ZM24.0322 10.2744C22.107 9.47775 19.9881 9.26875 17.9443 9.6748C15.9004 10.081 14.0224 11.0835 12.5488 12.5557C11.0753 14.0278 10.0716 15.9034 9.66504 17.9453C9.25848 19.9872 9.46715 22.1039 10.2646 24.0273C11.0621 25.9507 12.4129 27.5943 14.1455 28.751C15.8783 29.9076 17.916 30.5254 20 30.5254C22.7943 30.5253 25.4743 29.4163 27.4502 27.4424C29.4262 25.4683 30.5361 22.7908 30.5361 19.999C30.5361 17.9171 29.9185 15.8814 28.7607 14.1504C27.6031 12.4196 25.9572 11.0711 24.0322 10.2744Z" fill="#233F61"/>
<path d="M20.5269 18.5275H25.2159L17.8475 27.3697L19.857 20.7381H15.8379L21.1967 12.6328L20.5269 18.5275Z" fill="#233F61"/>
</g>
<defs>
<clipPath id="clip0_1482_13764">
<rect width="40" height="40" fill="white"/>
</clipPath>
</defs>
</svg>
