<svg width="40" height="40" viewBox="0 0 40 40" fill="none" xmlns="http://www.w3.org/2000/svg">
<g clip-path="url(#clip0_1486_13831)">
<path d="M20 0C31.0457 0 40 8.9543 40 20C40 31.0457 31.0457 40 20 40C8.9543 40 0 31.0457 0 20C0 8.9543 8.9543 0 20 0ZM20 6C18.9 6 18 6.9 18 8V10C14.7 10 12 12.7 12 16C12 19.3 14.7 22 18 22H22C23.1 22 24 22.9 24 24C24 25.1 23.1 26 22 26H14C12.9 26 12 26.9 12 28C12 29.1 12.9 30 14 30H18V32C18 33.1 18.9 34 20 34C21.1 34 22 33.1 22 32V30C25.3 30 28 27.3 28 24C28 20.7 25.3 18 22 18H18C16.9 18 16 17.1 16 16C16 14.9 16.9 14 18 14H26C27.1 14 28 13.1 28 12C28 10.9 27.1 10 26 10H22V8C22 6.9 21.1 6 20 6Z" fill="#233F61"/>
</g>
<defs>
<clipPath id="clip0_1486_13831">
<rect width="40" height="40" fill="white"/>
</clipPath>
</defs>
</svg>
